<svg xmlns="http://www.w3.org/2000/svg" viewBox="0 0 65.7 62.54"><defs><style>.cls-1{fill:none;stroke:#fff;stroke-miterlimit:10;stroke-width:1.5px;}</style></defs><g id="Layer_2" data-name="Layer 2"><g id="OBJECTS"><path class="cls-1" d="M33.16,61.65a108.82,108.82,0,0,0-2.52-10.71c-1.19-4.24-2.9-5.29-7.25-4.42a10.89,10.89,0,0,0-3.45,1.2c-1,.57-1.84,1.28-2.87,2a2.58,2.58,0,0,1,.85-2.57c3.4-4.27,1.76-9.89-4.9-11.23-3.5-.71-7-1.34-10.8-2.05,2.24-1.2,4.52-.73,6.62-1.16a50.55,50.55,0,0,0,5.37-1.09c5.3-1.7,5.87-4.54,3.74-9.62-.57-1.35-2-2.25-2.35-4.15,1.35.68,2.12,1.53,3.27,1.81,5.46,1.35,9.37-.64,11.3-5.93.71-1.93,1.36-3.88,1.91-5.87s.12-4.13,1.28-6.27c.84,1.58.65,3.19.94,4.66a30.1,30.1,0,0,0,3.17,9.49,8.49,8.49,0,0,0,12.82,2.45c.09-.07.27,0,.43,0,.53.84-.2,1.25-.62,1.74a9.44,9.44,0,0,0-2.39,5.8c-.13,3.07.61,4.35,3.44,5.47,3.23,1.28,6.67,1.58,10.09,1.93,1,.1,2,0,2.89.82C60.55,34.59,57,35.13,53.56,36c-2.28.55-4.51,1.3-5.74,3.73a5.78,5.78,0,0,0,0,5.85c.69,1.25,1.41,2.49,2.11,3.72-.74.56-1.16.06-1.51-.26a10.92,10.92,0,0,0-5.77-2.62c-3.21-.61-5.41.4-6.29,3.44-1,3.57-2.34,7.1-2.48,10.89C33.86,61.06,33.88,61.5,33.16,61.65Z"/></g></g></svg>