<svg xmlns="http://www.w3.org/2000/svg" viewBox="0 0 97.19 95.77"><defs><style>.cls-1{fill:#fff;}</style></defs><g id="Layer_2" data-name="Layer 2"><g id="OBJECTS"><path class="cls-1" d="M64.13,38.57,80.62,13.81A1.72,1.72,0,0,0,78,11.61L56.48,32.15a1.72,1.72,0,0,1-2.9-1L50.3,1.53a1.72,1.72,0,0,0-3.42,0L43.6,31.1a1.71,1.71,0,0,1-2.89,1L19.19,11.61a1.72,1.72,0,0,0-2.62,2.2L33.06,38.57a1.72,1.72,0,0,1-1.54,2.67L1.83,39.33a1.72,1.72,0,0,0-.59,3.37l28.55,8.37a1.72,1.72,0,0,1,.53,3l-24,17.63a1.72,1.72,0,0,0,1.71,3L35.31,62.75a1.72,1.72,0,0,1,2.36,2l-7,28.9a1.72,1.72,0,0,0,3.22,1.17L47.05,68.14a1.73,1.73,0,0,1,3.09,0L63.33,94.8a1.72,1.72,0,0,0,3.21-1.17l-7-28.9a1.72,1.72,0,0,1,2.36-2L89.12,74.69a1.72,1.72,0,0,0,1.71-3l-24-17.63a1.72,1.72,0,0,1,.53-3L96,42.7a1.72,1.72,0,0,0-.59-3.37L65.67,41.24A1.72,1.72,0,0,1,64.13,38.57Z"/></g></g></svg>