<svg xmlns="http://www.w3.org/2000/svg" viewBox="0 0 317.44 307.39"><defs><style>.cls-1,.cls-2{fill:#62aa66;}.cls-1,.cls-3,.cls-5{stroke:#fff;stroke-miterlimit:10;}.cls-1{stroke-width:15.38px;}.cls-3,.cls-4{fill:#ad3852;}.cls-3{stroke-width:14px;}.cls-5{fill:#c1cc48;stroke-width:8px;}</style></defs><g id="Layer_2" data-name="Layer 2"><g id="OBJECTS"><path class="cls-1" d="M47.72,118.32c5.73-36.63,11.78-45,36.84-53.78a1.1,1.1,0,0,0,0-2.11C59.5,53.67,53.45,45.28,47.72,8.65a1.24,1.24,0,0,0-2.41,0c-5.72,36.63-11.77,45-36.83,53.78a1.1,1.1,0,0,0,0,2.11c25.06,8.76,31.11,17.15,36.83,53.78A1.24,1.24,0,0,0,47.72,118.32Z"/><path class="cls-2" d="M47.72,118.32c5.73-36.63,11.78-45,36.84-53.78a1.1,1.1,0,0,0,0-2.11C59.5,53.67,53.45,45.28,47.72,8.65a1.24,1.24,0,0,0-2.41,0c-5.72,36.63-11.77,45-36.83,53.78a1.1,1.1,0,0,0,0,2.11c25.06,8.76,31.11,17.15,36.83,53.78A1.24,1.24,0,0,0,47.72,118.32Z"/><path class="cls-3" d="M277.38,152.16l16.49-24.76a1.72,1.72,0,0,0-2.62-2.19l-21.52,20.54a1.72,1.72,0,0,1-2.9-1.06l-3.28-29.56a1.72,1.72,0,0,0-3.42,0l-3.28,29.56a1.72,1.72,0,0,1-2.9,1.06l-21.51-20.54a1.72,1.72,0,0,0-2.62,2.19l16.49,24.76a1.72,1.72,0,0,1-1.54,2.67l-29.69-1.9a1.72,1.72,0,0,0-.59,3.37L243,164.66a1.72,1.72,0,0,1,.54,3l-24,17.62a1.72,1.72,0,0,0,1.71,3l27.25-11.94a1.72,1.72,0,0,1,2.36,2l-7,28.91a1.72,1.72,0,0,0,3.22,1.17l13.19-26.66a1.72,1.72,0,0,1,3.08,0l13.2,26.66a1.72,1.72,0,0,0,3.21-1.17l-7-28.91a1.73,1.73,0,0,1,2.37-2l27.24,11.94a1.72,1.72,0,0,0,1.71-3l-24-17.62a1.72,1.72,0,0,1,.53-3l28.55-8.36a1.72,1.72,0,0,0-.6-3.37l-29.68,1.9A1.72,1.72,0,0,1,277.38,152.16Z"/><path class="cls-4" d="M277.38,152.16l16.49-24.76a1.72,1.72,0,0,0-2.62-2.19l-21.52,20.54a1.72,1.72,0,0,1-2.9-1.06l-3.28-29.56a1.72,1.72,0,0,0-3.42,0l-3.28,29.56a1.72,1.72,0,0,1-2.9,1.06l-21.51-20.54a1.72,1.72,0,0,0-2.62,2.19l16.49,24.76a1.72,1.72,0,0,1-1.54,2.67l-29.69-1.9a1.72,1.72,0,0,0-.59,3.37L243,164.66a1.72,1.72,0,0,1,.54,3l-24,17.62a1.72,1.72,0,0,0,1.71,3l27.25-11.94a1.72,1.72,0,0,1,2.36,2l-7,28.91a1.72,1.72,0,0,0,3.22,1.17l13.19-26.66a1.72,1.72,0,0,1,3.08,0l13.2,26.66a1.72,1.72,0,0,0,3.21-1.17l-7-28.91a1.73,1.73,0,0,1,2.37-2l27.24,11.94a1.72,1.72,0,0,0,1.71-3l-24-17.62a1.72,1.72,0,0,1,.53-3l28.55-8.36a1.72,1.72,0,0,0-.6-3.37l-29.68,1.9A1.72,1.72,0,0,1,277.38,152.16Z"/><circle class="cls-5" cx="112.78" cy="241.98" r="61.41"/><path class="cls-4" d="M78.68,222.32l2.95-4.42a.31.31,0,0,0-.47-.4l-3.85,3.67a.31.31,0,0,1-.52-.18l-.58-5.29a.31.31,0,0,0-.61,0L75,221a.31.31,0,0,1-.52.18l-3.84-3.67a.31.31,0,0,0-.47.4l2.94,4.42a.31.31,0,0,1-.27.48l-5.31-.34a.31.31,0,0,0-.1.6l5.1,1.5a.3.3,0,0,1,.09.54l-4.28,3.15a.31.31,0,0,0,.31.53l4.87-2.14A.31.31,0,0,1,74,227l-1.26,5.16a.31.31,0,0,0,.58.21l2.36-4.76a.31.31,0,0,1,.55,0l2.36,4.76a.31.31,0,0,0,.57-.21L77.85,227a.31.31,0,0,1,.43-.36l4.86,2.14a.31.31,0,0,0,.31-.53l-4.28-3.15a.3.3,0,0,1,.09-.54l5.11-1.5a.31.31,0,0,0-.11-.6L79,222.8A.31.31,0,0,1,78.68,222.32Z"/><path d="M81.53,206.1l1.18-.88,8.93,11.94-1.18.88Zm9.09,10.11,2.8-2.1a2.92,2.92,0,0,0,1.21-1.55,1.8,1.8,0,0,0-.39-1.54l-.8-1.08a2.9,2.9,0,0,0-1-.85,1.84,1.84,0,0,0-1.11-.17,2.52,2.52,0,0,0-1.18.53l-3,2.22-.82-1.1,3-2.22a2.15,2.15,0,0,0,.94-1.37,2,2,0,0,0-.51-1.57l-.64-.86a1.84,1.84,0,0,0-1.33-.83,2.56,2.56,0,0,0-1.64.61l-2.85,2.14-.83-1.1,3-2.22a4.45,4.45,0,0,1,1.82-.87,2.69,2.69,0,0,1,1.64.18,3.53,3.53,0,0,1,1.38,1.18l.61.8a3.91,3.91,0,0,1,.62,1.22,2.58,2.58,0,0,1,.06,1.23A2.37,2.37,0,0,1,91,208a2.35,2.35,0,0,1,1.3-.28,2.81,2.81,0,0,1,1.28.42,4,4,0,0,1,1.1,1l.72,1a3.38,3.38,0,0,1,.73,1.68,2.85,2.85,0,0,1-.29,1.66A4.13,4.13,0,0,1,94.59,215l-3.15,2.36Z"/><path d="M101.48,204.71l2,5.84-1.4.48-2-5.83-6.65-7,1.47-.5,5.38,5.75.64-7.83,1.48-.5Z"/><path d="M116.21,209.11l-1.48-.09.87-14.88,1.49.08Z"/><path d="M130.57,198.28l-9.26,10.23,5.85,1.74-.38,1.27-7.41-2.21.33-1.09L129,198l-5.57-1.67.38-1.26,7.09,2.11Z"/><path d="M140.28,202.26l1.46,1-4.91,14.77-1.34-.95,4.6-13-10.7,8.76-1.34-1Zm-7.54,6.83L138,212.8l-.79,1.12L132,210.21Z"/><path d="M150.17,210.9l.86,1.2-12.16,8.63-.86-1.2Zm-10.32,8.83,2,2.86a2.89,2.89,0,0,0,1.53,1.24,1.81,1.81,0,0,0,1.55-.35l1.09-.78a2.71,2.71,0,0,0,.87-.93,1.83,1.83,0,0,0,.21-1.1,2.64,2.64,0,0,0-.51-1.2l-2.14-3,1.12-.79,2.14,3a2.21,2.21,0,0,0,1.35,1,2.12,2.12,0,0,0,1.58-.47l.88-.63a1.84,1.84,0,0,0,.86-1.3,2.49,2.49,0,0,0-.57-1.66l-2.07-2.91,1.12-.79,2.15,3a4.42,4.42,0,0,1,.82,1.84,2.72,2.72,0,0,1-.22,1.63,3.59,3.59,0,0,1-1.21,1.36l-.82.58a3.86,3.86,0,0,1-1.23.59,2.57,2.57,0,0,1-1.23,0,2.43,2.43,0,0,1-1.11-.6,2.32,2.32,0,0,1,.25,1.3,2.74,2.74,0,0,1-.45,1.27,4,4,0,0,1-1.06,1.08l-1,.7a3.65,3.65,0,0,1-1.7.68,2.86,2.86,0,0,1-1.66-.33,4.3,4.3,0,0,1-1.43-1.32l-2.27-3.2Z"/><path d="M158.35,224.75l.42,1.41-14.29,4.26-.42-1.41Zm-12.68,4.84,2,6.68-1.31.39-2-6.68Zm6.43-1.92,1.76,5.89-1.31.4-1.76-5.9Zm6.54-1.95,2,6.68-1.31.39-2-6.68Z"/><path d="M147.9,240.13l-.12,6.84-1.37,0,.12-6.83Zm13.55-.81,0,1.48-14.91-.26,0-1.48Z"/><path d="M146.9,250.52l-2.25,6.6-1.3-.44,2.25-6.6Zm13.14,3.4-.47,1.39-14.12-4.8.48-1.39Zm-6.78-1.24-2,5.83-1.3-.45,2-5.82Zm6.45,2.2-2.24,6.6-1.3-.44,2.24-6.6Zm1.86,3.08-.48,1.39-1.4-.47.47-1.4Z"/><path d="M150.07,273.29l-1.13,1.08-11.41-7.12L144.05,279l-1.13,1.07-7.3-13.62,1.22-1.16Z"/><path d="M130.63,271.89l-6.3,3-.59-1.24,6.3-3Zm2.88,6.07L128,280.59l-.59-1.24,5.56-2.63Zm2.92,6.16-6.3,3-.59-1.25,6.3-3Zm.92-.44-1.34.64-6.39-13.47,1.34-.64Z"/><path d="M123,289.14l-1.43.15-8-12.07.44,0,1.31,12.69-1.47.15-1.53-14.82,1.46-.15,8,12.12-.54-.1L120,274.47l1.46-.15Z"/><path d="M107.57,274.66a3.61,3.61,0,0,1,1.25,1.33,4.11,4.11,0,0,1,.44,1.91l-1.49.17a2.76,2.76,0,0,0-.68-1.9,3.61,3.61,0,0,0-1.82-1,3.44,3.44,0,0,0-2.36.08,2.27,2.27,0,0,0-1.22,1.63l-.1.41a2.08,2.08,0,0,0,.06,1.36,2.73,2.73,0,0,0,.77,1,16.39,16.39,0,0,0,1.39,1l0,0,0,0,.25.14a15.5,15.5,0,0,1,1.8,1.24,3.46,3.46,0,0,1,1,1.38,3.16,3.16,0,0,1,0,2l-.09.35a4,4,0,0,1-1,1.95,3.23,3.23,0,0,1-1.77.92,5.94,5.94,0,0,1-2.47-.15,5.19,5.19,0,0,1-1.79-.76,3.14,3.14,0,0,1-1-1.24,4.61,4.61,0,0,1-.38-1.81l1.46-.15a3,3,0,0,0,.58,1.75,2.72,2.72,0,0,0,1.51.88,3.45,3.45,0,0,0,2.32-.08,2.26,2.26,0,0,0,1.18-1.6l.09-.35a1.86,1.86,0,0,0-.11-1.35,3,3,0,0,0-.86-1c-.38-.28-.89-.62-1.55-1l-.08-.05,0-.05a.19.19,0,0,1-.09,0l-.09-.05a10.79,10.79,0,0,1-1.63-1.19,3.61,3.61,0,0,1-.94-1.43,3.39,3.39,0,0,1,0-2l.11-.47a4.22,4.22,0,0,1,1-2,3.23,3.23,0,0,1,1.8-.91,6.23,6.23,0,0,1,2.52.18A6.39,6.39,0,0,1,107.57,274.66Z"/><path d="M95.29,275.91l-10.58,4.47-1.49-1L96,274.22Zm-4.06.41-1.58.8,1.24-10.51,1.47,1Zm-.31,8.1-1.24-.81,8.13-12.5,1.24.81Z"/><path d="M82.44,265.81,87.26,262l.93,1.16L83.37,267l-4.32,8.6-1-1.22,3.61-7-7.59,2-1-1.22Z"/><path d="M70.35,263.21l-3.17-8.29,1.29-.49,3.17,8.29Zm-.46-3.77-.53-1.39,13.07-5,.53,1.38Z"/><path d="M63,245.41l-.09-1.48,1.49-.09.09,1.48Zm2.89,2.15-.42-7,1.37-.09.42,7Zm.06,1-.09-1.47,14.88-.9.09,1.47Zm6.74-1.42L72.31,241l1.37-.08.37,6.14Zm6.71-.41-.42-7,1.37-.08.42,7Z"/></g></g></svg>