<svg xmlns="http://www.w3.org/2000/svg" viewBox="0 0 94.76 93.38"><defs><style>.cls-1{fill:#282623;}</style></defs><g id="Layer_2" data-name="Layer 2"><g id="OBJECTS"><path class="cls-1" d="M63.08,37.07,78.64,13.72a1.87,1.87,0,0,0-2.86-2.39L55.49,30.7a1.88,1.88,0,0,1-3.16-1.15L49.24,1.67a1.87,1.87,0,0,0-3.72,0l-3.1,27.88a1.87,1.87,0,0,1-3.15,1.15L19,11.33a1.87,1.87,0,0,0-2.85,2.39L31.67,37.07A1.87,1.87,0,0,1,30,40L2,38.18a1.87,1.87,0,0,0-.65,3.67l26.92,7.89a1.87,1.87,0,0,1,.58,3.31L6.25,69.67A1.88,1.88,0,0,0,8.12,72.9L33.81,61.63a1.87,1.87,0,0,1,2.57,2.16L29.75,91.05a1.88,1.88,0,0,0,3.5,1.28L45.7,67.18a1.87,1.87,0,0,1,3.36,0L61.5,92.33A1.88,1.88,0,0,0,65,91.05L58.37,63.79a1.87,1.87,0,0,1,2.57-2.16L86.64,72.9a1.88,1.88,0,0,0,1.86-3.23L65.9,53.05a1.88,1.88,0,0,1,.58-3.31l26.93-7.89a1.88,1.88,0,0,0-.65-3.67l-28,1.8A1.87,1.87,0,0,1,63.08,37.07Z"/></g></g></svg>