<svg xmlns="http://www.w3.org/2000/svg" viewBox="0 0 166.41 208.34"><defs><style>.cls-1{fill:#fff;}</style></defs><g id="Layer_2" data-name="Layer 2"><g id="OBJECTS"><path class="cls-1" d="M83.21,208.34l-1.47-6.84c-14-65.2-24.83-78.65-77.4-95.9L0,104.17l4.34-1.42C56.91,85.49,67.76,72,81.74,6.84L83.21,0l1.46,6.84c14,65.2,24.83,78.65,77.4,95.91l4.34,1.42-4.34,1.43c-52.57,17.25-63.42,30.7-77.4,95.9ZM9.54,104.17c48,16.33,60.5,31.45,73.67,90,13.16-58.56,25.67-73.68,73.66-90-48-16.33-60.5-31.45-73.66-90C70,72.72,57.53,87.84,9.54,104.17Z"/></g></g></svg>