<svg xmlns="http://www.w3.org/2000/svg" viewBox="0 0 3118.71 8863.52"><defs><style>.cls-1{fill:#fff;}</style></defs><g id="Layer_2" data-name="Layer 2"><g id="OBJECTS"><path class="cls-1" d="M3002.9.19A4686.6,4686.6,0,0,1,1284.71,336.56q-218.2,1.11-435.87-18.23c-144.07-12.85-285.79-38.22-429-56.72-116.24-15-241.7-12.55-337,64.7-79,64-104.15,164.56-63.75,258.07,43.76,101.31,137.33,171.9,229.78,226.16,90.17,52.92,186.87,93.89,285.6,127.87,209.32,72,427.39,113.23,640.6,171.5,206.68,56.5,416.13,130.49,581.29,271.71,184.89,158.08,284.32,384.36,296.23,625.51,12.24,247.94-57.41,498-172.4,716.2-125.58,238.3-310.53,441.44-498.89,631.53-368.62,372-785.22,724.59-962.52,1234.94C337.35,4824,318.65,5079.73,401,5316.43c75.84,217.89,226.79,400.45,403.51,545.23C1220,6202.07,1753.74,6318.37,2228.43,6548c442.56,214.1,912.89,618,885.14,1158.53-13.19,256.83-152.26,487.49-338,658.67-204.61,188.54-463.71,301.39-726.52,383.3-133.61,41.64-269.34,75.94-405,110.09-3.12.79-1.79,5.61,1.33,4.82,493.63-124.27,1043.58-272.91,1333-731.34,121.06-191.77,169.67-418.75,122.8-641.92-48.14-229.2-183.45-432.8-348.94-594.86-395-386.81-955.95-509.84-1444.36-733.51C864.9,5959,408.29,5612.57,356.58,5091c-55.53-559.94,334.25-1043.09,704.94-1413.69,358.57-358.49,770.08-707.27,930.12-1206.21,69.11-215.46,93.15-452.53,33.6-673.14-55.21-204.6-185.47-376.37-362-492.21-361-236.92-818.52-247.62-1212.8-403.62C342,859.23,231,806,141.06,730.56,34,640.71-54.24,484.5,54.8,359.91,161,238.57,333.92,252.36,477.58,275.12,617,297.2,756.38,316.34,897.16,327.38c572.32,44.88,1152.79-16.82,1702.9-181Q2805.35,85.15,3004.22,5c3-1.18,1.67-6-1.32-4.82Z"/></g></g></svg>