<svg xmlns="http://www.w3.org/2000/svg" viewBox="0 0 93.04 126.97"><defs><style>.cls-1,.cls-2{fill:#62aa66;}.cls-1{stroke:#fff;stroke-miterlimit:10;stroke-width:15.38px;}</style></defs><g id="Layer_2" data-name="Layer 2"><g id="OBJECTS"><path class="cls-1" d="M47.72,118.32c5.73-36.63,11.78-45,36.84-53.78a1.1,1.1,0,0,0,0-2.11C59.5,53.67,53.45,45.28,47.72,8.65a1.24,1.24,0,0,0-2.41,0c-5.72,36.63-11.77,45-36.83,53.78a1.1,1.1,0,0,0,0,2.11c25.06,8.76,31.11,17.15,36.83,53.78A1.24,1.24,0,0,0,47.72,118.32Z"/><path class="cls-2" d="M47.72,118.32c5.73-36.63,11.78-45,36.84-53.78a1.1,1.1,0,0,0,0-2.11C59.5,53.67,53.45,45.28,47.72,8.65a1.24,1.24,0,0,0-2.41,0c-5.72,36.63-11.77,45-36.83,53.78a1.1,1.1,0,0,0,0,2.11c25.06,8.76,31.11,17.15,36.83,53.78A1.24,1.24,0,0,0,47.72,118.32Z"/></g></g></svg>