<svg xmlns="http://www.w3.org/2000/svg" viewBox="0 0 3260.18 1840.43"><defs><style>.cls-1{fill:#fff;}</style></defs><g id="Layer_2" data-name="Layer 2"><g id="OBJECTS"><path class="cls-1" d="M2684.66,183.11,2793.35,85c1.54-1.39.51-3.53-1.1-4.18-85.18-34.41-177.81-32-266.92-16.5-92.11,16-182.33,43.35-272.54,67.51-179.58,48.1-358.9,97.28-536.78,151.4-349.9,106.45-695.86,232.36-1018.44,406.24Q577.9,754,463.32,827.38c-74.76,48.1-149.26,98.18-216.81,156.16-124,106.46-229.8,263-195.37,434.37,31.36,156.14,180.38,236.93,318.92,283.8,162.64,55,333.63,90.1,503.63,112.59,348.11,46.07,704,30.87,1047.28-42.77a3044.48,3044.48,0,0,0,505-155c159.34-64.6,315.56-142,459.81-235.8,130-84.6,257.4-191,326.37-333.13,33.2-68.4,50.69-144,47.7-220.14-3.2-81.76-28.67-161.52-68-232.9-84.24-152.76-227.93-258.12-383.05-331.44C2640.89,183.78,2458.63,130.79,2278.15,89A3452.82,3452.82,0,0,0,1124.88,20.41C948.27,39.77,771.41,70.85,601.41,123.25c-155,47.78-306.27,114.93-435.7,213.9C104.33,384.08,48.63,438,.59,498.56c-2,2.5,1.53,6.06,3.53,3.54C208.15,245,534.32,128.75,846.33,67.78,1221.46-5.53,1609.1-14.42,1987.4,39.69a3415.09,3415.09,0,0,1,550.21,125.58c169.06,53.7,340.29,118.87,479.62,231.64C3147.75,502.57,3249.18,658.29,3254.94,830c5.49,163.76-84.51,306.58-200.55,414.73-120,111.88-266.15,194.81-411.94,268.2a2986.8,2986.8,0,0,1-479.94,191.17,3086.33,3086.33,0,0,1-1022.77,128.44A2988.62,2988.62,0,0,1,627.45,1766c-81.57-17.93-162.91-38.7-242.35-64.59-73.75-24-147.35-54.39-209.35-101.87-64.21-49.16-110.56-117.42-122.47-198.37-12.76-86.79,11.35-177,55.38-251.83S216.13,1012.89,283.8,959.28c69.87-55.36,144.83-104.71,220.38-151.88,305.13-190.51,638.78-330.33,979-444.64,169.91-57.08,341.84-108,514.47-156.21q129.39-36.13,259.22-70.67c87.43-23.41,174.83-49.68,264-65.74,90.07-16.23,183.8-19.37,270.05,15.47l-1.1-4.18-108.7,98.15c-2.39,2.16,1.15,5.69,3.54,3.53Z"/></g></g></svg>